<svg width="117" height="35" viewBox="0 0 117 35" fill="none" xmlns="http://www.w3.org/2000/svg">
<path d="M4.63564 15.8644L6.94797 13.552L6.95038 13.5496H11.3006L9.56969 15.2806L9.12278 15.7275L7.35024 17.5L7.56977 17.7201L17.5 27.6498L27.6498 17.5L25.8766 15.7275L25.7518 15.602L23.6994 13.5496H28.0496L28.052 13.552L29.8644 15.3644L32 17.5L17.5 32L3 17.5L4.63564 15.8644ZM17.5 3L25.8784 11.3784H21.5282L17.5 7.35024L13.4718 11.3784H9.12158L17.5 3Z" fill="currentColor"/>
<path d="M7.35037 17.5L9.12292 15.7275L9.56982 15.2805L7.8395 13.5496H6.95051L6.9481 13.552L4.63577 15.8644L6.85522 18.073L7.35037 17.5Z" fill="url(#paint0_linear_112963_156515)"/>
<path d="M25.8765 15.7275L27.6496 17.5L27.4741 17.6755L27.4747 17.6761L29.8643 15.3644L28.0519 13.552L28.0495 13.5496H27.8734L25.7516 15.602L25.8765 15.7275Z" fill="url(#paint1_linear_112963_156515)"/>
<path d="M6.9453 13.5496L6.94771 13.552L9.12253 15.7275L17.4998 24.1041L28.0542 13.5496H6.9453Z" fill="#1890FF"/>
<path d="M46.925 25.5V9.594H50.753L54.922 21.749L59.135 9.594H62.941V25.5H60.224V13.026L56.033 25.5H53.8L49.642 13.103V25.5H46.925ZM69.5711 25.72C68.8451 25.72 68.1924 25.588 67.6131 25.324C67.0411 25.0527 66.5901 24.6677 66.2601 24.169C65.9374 23.663 65.7761 23.0507 65.7761 22.332C65.7761 21.078 66.2271 20.132 67.1291 19.494C68.0384 18.856 69.4867 18.5223 71.4741 18.493L73.1681 18.449V17.679C73.1681 17.0777 72.9884 16.6083 72.6291 16.271C72.2771 15.9263 71.7271 15.7577 70.9791 15.765C70.4291 15.7723 69.9231 15.9043 69.4611 16.161C69.0064 16.4103 68.7057 16.832 68.5591 17.426H66.2821C66.3261 16.6487 66.5497 15.9997 66.9531 15.479C67.3637 14.951 67.9247 14.5587 68.6361 14.302C69.3474 14.038 70.1687 13.906 71.1001 13.906C72.1854 13.906 73.0691 14.049 73.7511 14.335C74.4331 14.621 74.9354 15.0353 75.2581 15.578C75.5807 16.1133 75.7421 16.7623 75.7421 17.525V25.5H73.4871L73.2781 23.454C72.8674 24.312 72.3467 24.906 71.7161 25.236C71.0927 25.5587 70.3777 25.72 69.5711 25.72ZM70.4401 23.905C70.7701 23.905 71.0964 23.8463 71.4191 23.729C71.7417 23.6043 72.0351 23.4393 72.2991 23.234C72.5631 23.0213 72.7721 22.7867 72.9261 22.53C73.0874 22.2733 73.1681 22.0057 73.1681 21.727V19.934L71.7711 19.956C71.0817 19.9633 70.4804 20.0367 69.9671 20.176C69.4537 20.3153 69.0504 20.539 68.7571 20.847C68.4711 21.1477 68.3281 21.551 68.3281 22.057C68.3281 22.6363 68.5297 23.091 68.9331 23.421C69.3364 23.7437 69.8387 23.905 70.4401 23.905ZM78.8735 25.5V14.126H81.4915V15.754C81.6675 15.4607 81.9058 15.1783 82.2065 14.907C82.5145 14.6357 82.8921 14.4157 83.3395 14.247C83.7868 14.0783 84.3111 13.994 84.9125 13.994C85.6165 13.994 86.2691 14.1333 86.8705 14.412C87.4791 14.6907 87.9668 15.127 88.3335 15.721C88.7075 16.315 88.8945 17.0813 88.8945 18.02V25.5H86.2105V18.339C86.2105 17.591 86.0051 17.0373 85.5945 16.678C85.1838 16.3113 84.6668 16.128 84.0435 16.128C83.6181 16.128 83.2148 16.2013 82.8335 16.348C82.4521 16.4873 82.1405 16.7037 81.8985 16.997C81.6638 17.283 81.5465 17.6423 81.5465 18.075V25.5H78.8735ZM97.652 16.018H95.111L95.122 22.541C95.122 22.8783 95.1587 23.1277 95.232 23.289C95.3127 23.443 95.4373 23.5457 95.606 23.597C95.782 23.641 96.0167 23.663 96.31 23.663H97.707V25.357C97.5603 25.4157 97.3367 25.467 97.036 25.511C96.7427 25.5623 96.3467 25.588 95.848 25.588C94.946 25.588 94.2457 25.4707 93.747 25.236C93.2557 24.994 92.9147 24.653 92.724 24.213C92.5333 23.773 92.438 23.2487 92.438 22.64V16.018H90.59V14.126H92.515L93.186 10.749H95.111V14.115H97.652V16.018ZM103.033 14.126V25.5H100.459V14.126H103.033ZM103.066 9.605V12.135H100.415V9.605H103.066ZM110.545 25.72C109.753 25.72 109.001 25.5953 108.29 25.346C107.586 25.0893 106.992 24.6897 106.508 24.147C106.031 23.6043 105.731 22.904 105.606 22.046H107.96C108.063 22.464 108.242 22.805 108.499 23.069C108.763 23.333 109.075 23.5273 109.434 23.652C109.793 23.7693 110.16 23.828 110.534 23.828C111.216 23.828 111.766 23.7107 112.184 23.476C112.609 23.2413 112.822 22.8783 112.822 22.387C112.822 22.0277 112.705 21.7417 112.47 21.529C112.235 21.3163 111.861 21.155 111.348 21.045L109.181 20.55C108.22 20.3373 107.447 19.9853 106.86 19.494C106.281 19.0027 105.987 18.3097 105.98 17.415C105.973 16.7403 106.141 16.139 106.486 15.611C106.831 15.083 107.344 14.6687 108.026 14.368C108.708 14.06 109.551 13.906 110.556 13.906C111.883 13.906 112.947 14.203 113.746 14.797C114.545 15.3837 114.956 16.2233 114.978 17.316H112.701C112.62 16.8247 112.389 16.4433 112.008 16.172C111.627 15.8933 111.132 15.754 110.523 15.754C109.892 15.754 109.375 15.875 108.972 16.117C108.569 16.359 108.367 16.7293 108.367 17.228C108.367 17.5727 108.521 17.844 108.829 18.042C109.137 18.24 109.599 18.4087 110.215 18.548L112.261 19.043C112.848 19.1897 113.328 19.3877 113.702 19.637C114.076 19.8863 114.369 20.1613 114.582 20.462C114.795 20.7553 114.941 21.0597 115.022 21.375C115.11 21.683 115.154 21.969 115.154 22.233C115.154 22.9663 114.963 23.5933 114.582 24.114C114.208 24.6273 113.676 25.0233 112.987 25.302C112.298 25.5807 111.484 25.72 110.545 25.72Z" fill="#141414"/>
<defs>
<linearGradient id="paint0_linear_112963_156515" x1="8.62538" y1="14.0888" x2="5.56721" y2="17.1469" gradientUnits="userSpaceOnUse">
<stop stop-color="#023B95"/>
<stop offset="0.9637" stop-color="#096CD9" stop-opacity="0"/>
</linearGradient>
<linearGradient id="paint1_linear_112963_156515" x1="26.2673" y1="14.1279" x2="28.7402" y2="16.938" gradientUnits="userSpaceOnUse">
<stop stop-color="#023B95"/>
<stop offset="1" stop-color="#096DD9" stop-opacity="0"/>
</linearGradient>
</defs>
</svg>
