<svg width="118" height="35" viewBox="0 0 118 35" fill="none" xmlns="http://www.w3.org/2000/svg">
<path d="M5.44814 15.8644L7.76047 13.552L7.76288 13.5496H12.1131L10.3822 15.2806L9.93528 15.7275L8.16274 17.5L8.38227 17.7201L18.3125 27.6498L28.4623 17.5L26.6891 15.7275L26.5643 15.602L24.5119 13.5496H28.8621L28.8645 13.552L30.6769 15.3644L32.8125 17.5L18.3125 32L3.8125 17.5L5.44814 15.8644ZM18.3125 3L26.6909 11.3784H22.3407L18.3125 7.35024L14.2843 11.3784H9.93408L18.3125 3Z" fill="#096DD9"/>
<path d="M8.16287 17.5002L9.93542 15.7276L10.3823 15.2807L8.652 13.5498H7.76301L7.7606 13.5522L5.44827 15.8645L7.66772 18.0731L8.16287 17.5002Z" fill="url(#paint0_linear_113047_293987)"/>
<path d="M26.6892 15.7276L28.4624 17.5002L28.2869 17.6757L28.2875 17.6763L30.677 15.3646L28.8647 13.5522L28.8622 13.5498H28.6861L26.5644 15.6022L26.6892 15.7276Z" fill="url(#paint1_linear_113047_293987)"/>
<path d="M7.75805 13.5498L7.76046 13.5522L9.93528 15.7276L18.3125 24.1043L28.8669 13.5498H7.75805Z" fill="#1890FF"/>
<path d="M47.7375 25.5V9.594H51.5655L55.7345 21.749L59.9475 9.594H63.7535V25.5H61.0365V13.026L56.8455 25.5H54.6125L50.4545 13.103V25.5H47.7375ZM70.3836 25.72C69.6576 25.72 69.0049 25.588 68.4256 25.324C67.8536 25.0527 67.4026 24.6677 67.0726 24.169C66.7499 23.663 66.5886 23.0507 66.5886 22.332C66.5886 21.078 67.0396 20.132 67.9416 19.494C68.8509 18.856 70.2992 18.5223 72.2866 18.493L73.9806 18.449V17.679C73.9806 17.0777 73.8009 16.6083 73.4416 16.271C73.0896 15.9263 72.5396 15.7577 71.7916 15.765C71.2416 15.7723 70.7356 15.9043 70.2736 16.161C69.8189 16.4103 69.5182 16.832 69.3716 17.426H67.0946C67.1386 16.6487 67.3622 15.9997 67.7656 15.479C68.1762 14.951 68.7372 14.5587 69.4486 14.302C70.1599 14.038 70.9812 13.906 71.9126 13.906C72.9979 13.906 73.8816 14.049 74.5636 14.335C75.2456 14.621 75.7479 15.0353 76.0706 15.578C76.3932 16.1133 76.5546 16.7623 76.5546 17.525V25.5H74.2996L74.0906 23.454C73.6799 24.312 73.1592 24.906 72.5286 25.236C71.9052 25.5587 71.1902 25.72 70.3836 25.72ZM71.2526 23.905C71.5826 23.905 71.9089 23.8463 72.2316 23.729C72.5542 23.6043 72.8476 23.4393 73.1116 23.234C73.3756 23.0213 73.5846 22.7867 73.7386 22.53C73.8999 22.2733 73.9806 22.0057 73.9806 21.727V19.934L72.5836 19.956C71.8942 19.9633 71.2929 20.0367 70.7796 20.176C70.2662 20.3153 69.8629 20.539 69.5696 20.847C69.2836 21.1477 69.1406 21.551 69.1406 22.057C69.1406 22.6363 69.3422 23.091 69.7456 23.421C70.1489 23.7437 70.6512 23.905 71.2526 23.905ZM79.686 25.5V14.126H82.304V15.754C82.48 15.4607 82.7183 15.1783 83.019 14.907C83.327 14.6357 83.7046 14.4157 84.152 14.247C84.5993 14.0783 85.1236 13.994 85.725 13.994C86.429 13.994 87.0816 14.1333 87.683 14.412C88.2916 14.6907 88.7793 15.127 89.146 15.721C89.52 16.315 89.707 17.0813 89.707 18.02V25.5H87.023V18.339C87.023 17.591 86.8176 17.0373 86.407 16.678C85.9963 16.3113 85.4793 16.128 84.856 16.128C84.4306 16.128 84.0273 16.2013 83.646 16.348C83.2646 16.4873 82.953 16.7037 82.711 16.997C82.4763 17.283 82.359 17.6423 82.359 18.075V25.5H79.686ZM98.4645 16.018H95.9235L95.9345 22.541C95.9345 22.8783 95.9712 23.1277 96.0445 23.289C96.1252 23.443 96.2498 23.5457 96.4185 23.597C96.5945 23.641 96.8292 23.663 97.1225 23.663H98.5195V25.357C98.3728 25.4157 98.1492 25.467 97.8485 25.511C97.5552 25.5623 97.1592 25.588 96.6605 25.588C95.7585 25.588 95.0582 25.4707 94.5595 25.236C94.0682 24.994 93.7272 24.653 93.5365 24.213C93.3458 23.773 93.2505 23.2487 93.2505 22.64V16.018H91.4025V14.126H93.3275L93.9985 10.749H95.9235V14.115H98.4645V16.018ZM103.845 14.126V25.5H101.271V14.126H103.845ZM103.878 9.605V12.135H101.227V9.605H103.878ZM111.358 25.72C110.566 25.72 109.814 25.5953 109.103 25.346C108.399 25.0893 107.805 24.6897 107.321 24.147C106.844 23.6043 106.543 22.904 106.419 22.046H108.773C108.875 22.464 109.055 22.805 109.312 23.069C109.576 23.333 109.887 23.5273 110.247 23.652C110.606 23.7693 110.973 23.828 111.347 23.828C112.029 23.828 112.579 23.7107 112.997 23.476C113.422 23.2413 113.635 22.8783 113.635 22.387C113.635 22.0277 113.517 21.7417 113.283 21.529C113.048 21.3163 112.674 21.155 112.161 21.045L109.994 20.55C109.033 20.3373 108.259 19.9853 107.673 19.494C107.093 19.0027 106.8 18.3097 106.793 17.415C106.785 16.7403 106.954 16.139 107.299 15.611C107.643 15.083 108.157 14.6687 108.839 14.368C109.521 14.06 110.364 13.906 111.369 13.906C112.696 13.906 113.759 14.203 114.559 14.797C115.358 15.3837 115.769 16.2233 115.791 17.316H113.514C113.433 16.8247 113.202 16.4433 112.821 16.172C112.439 15.8933 111.944 15.754 111.336 15.754C110.705 15.754 110.188 15.875 109.785 16.117C109.381 16.359 109.18 16.7293 109.18 17.228C109.18 17.5727 109.334 17.844 109.642 18.042C109.95 18.24 110.412 18.4087 111.028 18.548L113.074 19.043C113.66 19.1897 114.141 19.3877 114.515 19.637C114.889 19.8863 115.182 20.1613 115.395 20.462C115.607 20.7553 115.754 21.0597 115.835 21.375C115.923 21.683 115.967 21.969 115.967 22.233C115.967 22.9663 115.776 23.5933 115.395 24.114C115.021 24.6273 114.489 25.0233 113.8 25.302C113.11 25.5807 112.296 25.72 111.358 25.72Z" fill="#F0F0F0"/>
<defs>
<linearGradient id="paint0_linear_113047_293987" x1="9.43788" y1="14.0889" x2="6.37971" y2="17.1471" gradientUnits="userSpaceOnUse">
<stop stop-color="#023B95"/>
<stop offset="0.9637" stop-color="#096CD9" stop-opacity="0"/>
</linearGradient>
<linearGradient id="paint1_linear_113047_293987" x1="27.08" y1="14.1281" x2="29.5529" y2="16.9382" gradientUnits="userSpaceOnUse">
<stop stop-color="#023B95"/>
<stop offset="1" stop-color="#096DD9" stop-opacity="0"/>
</linearGradient>
</defs>
</svg>
